<svg xmlns="http://www.w3.org/2000/svg" viewBox="0 0 100 100" width="100" height="100">
  <rect width="100" height="100" rx="22" fill="#0f172a" />
  <!-- Guitar Neck & Headstock -->
  <path d="M 44 20 L 56 20 L 56 82 L 44 82 Z" fill="none" stroke="#38bdf8" stroke-width="2.5" />
  <path d="M 40 18 C 40 12, 60 12, 60 18 L 56 20 L 44 20 Z" fill="none" stroke="#38bdf8" stroke-width="2.5" />
  <!-- Frets -->
  <line x1="44" y1="30" x2="56" y2="30" stroke="#38bdf8" stroke-width="1.5" />
  <line x1="44" y1="40" x2="56" y2="40" stroke="#38bdf8" stroke-width="1.5" />
  <line x1="44" y1="50" x2="56" y2="50" stroke="#38bdf8" stroke-width="1.5" />
  <line x1="44" y1="60" x2="56" y2="60" stroke="#38bdf8" stroke-width="1.5" />
  <line x1="44" y1="70" x2="56" y2="70" stroke="#38bdf8" stroke-width="1.5" />
  <!-- Strings -->
  <line x1="47" y1="20" x2="47" y2="82" stroke="#bae6fd" stroke-width="1" />
  <line x1="50" y1="20" x2="50" y2="82" stroke="#bae6fd" stroke-width="1" />
  <line x1="53" y1="20" x2="53" y2="82" stroke="#bae6fd" stroke-width="1" />
  <!-- Flames Background / Side Accent -->
  <path d="M 32 78 C 24 64, 38 52, 43 45 C 41 56, 47 62, 44 78 Z" fill="#f97316" opacity="0.9" />
  <path d="M 68 78 C 76 64, 62 52, 57 45 C 59 56, 53 62, 56 78 Z" fill="#f97316" opacity="0.9" />
  <path d="M 36 78 C 30 68, 40 58, 44 52 C 43 60, 46 66, 44 78 Z" fill="#fbbf24" opacity="0.9" />
  <path d="M 64 78 C 70 68, 60 58, 56 52 C 57 60, 54 66, 56 78 Z" fill="#fbbf24" opacity="0.9" />
</svg>